<svg width="502" height="366" viewBox="0 0 502 366" xmlns="http://www.w3.org/2000/svg" xmlns:xlink="http://www.w3.org/1999/xlink"><defs><linearGradient x1="50%" y1="0%" x2="50%" y2="50%" id="a"><stop stop-color="#EDEFFC" offset="0%"/><stop stop-color="#FFF" offset="100%"/></linearGradient><linearGradient x1="100%" y1="50%" x2="0%" y2="50%" id="f"><stop stop-color="#FFF" offset="0%"/><stop stop-color="#FFF" stop-opacity="0" offset="100%"/></linearGradient><path id="b" d="M.06.399h118.513v202.98H.06z"/><path id="d" d="M.882.058H115v198.306H.882z"/></defs><g fill="none" fill-rule="evenodd"><ellipse fill="url(#a)" cx="251" cy="339.5" rx="250" ry="26.5"/><path d="M152.527 252.545c.607.892 2.336.777 3.206.616 1.083-.202 2.038-.915 2.865-1.557 2.632-2.045 5.26-4.061 7.676-6.404 1.198-1.163 2.703-2.091 3.657-3.439.211-.298.145-1.454.147-1.826.003-.595-.675-.54-1.164-.513-2.749.154-5.173 1.741-7.409 3.191-.855.555-1.589 1.255-2.448 1.822-1.311.865-2.639 1.742-3.805 2.788a12.209 12.209 0 00-2.368 2.973c-.296.528-.71 1.261-.596 1.917.073.42.33.671.239.432" fill="#EEA05D"/><path d="M169.296 242.862c.647-.48.781-1.339.95-2.068.562-2.411.705-4.928.942-7.411.194-2.034-.08-4.119.304-6.175.361-1.921 1.259-3.778 1.442-5.746.099-1.083.101-2.799-.485-3.95a.745.745 0 00-1.214-.164 2.889 2.889 0 00-.419.56c-.234.441-.236 1.202-.389 1.715-.294.988-.763 2.011-.964 3.001-.162-.431-.104-1.246-.066-1.954.011-.217-.295-.274-.363-.067-.308.945-.578 2.112-.672 2.866-.121.973.407 2.254.316 3.238-.161 1.738-.865 3.003-1.303 4.698-.72 2.793-2.027 5.796-1.723 8.743.075.738-.111 1.987.518 2.537.443.388 2.468.665 3.126.177" fill="#EEA05D"/><path d="M149.315 248.25c.582-.506 1.59-.481 2.364-.735 1.017-.334 2.08-.777 2.987-1.337.489-.302.949-.631 1.455-.879.511-.249 1.074-.394 1.548-.723.42-.29.715-.728 1.187-.394.427.303.756.754 1.166 1.096.732.611 1.443 1.295 1.849 2.17.292.626.348 1.28.578 1.904-.554.334-.99.832-1.547 1.166-.733.441-1.461.846-2.104 1.425-.507.456-.924 1.008-1.32 1.55-.675.923-.542 1.712-.477 2.803.108 1.776.605 3.554.608 5.331-.301-.194-.56-.519-.872-.73-.489-.33-1.095-.493-1.528-.905-.877-.836-.94-2.317-1.197-3.423-.441-1.901-1.077-3.746-2.442-5.192a9.864 9.864 0 01-1.495-1.996c-.225-.395-.479-.875-.742-1.211.064.174.146.34-.018.08" fill="#C4DFF8"/><path d="M366.307 215.414c-.03-.241-.063-.48-.102-.717-.322-1.931-.536-3.888-1.257-5.724-.323-.823-.741-1.611-.996-2.458-.255-.847-.334-1.787.02-2.597a5.66 5.66 0 011.067 2.639 45.248 45.248 0 00-.369-6.221c.155-.104.363-.03.531.052a7.38 7.38 0 012.206 1.658c.299.33.572.694.723 1.113.161.451.173.94.147 1.418-.072 1.333-.658 2.853-.221 4.114.209.601.177.964.698 1.977.781 1.522 1.552 3.048 2.324 4.574.869 1.716 2.897 5.773 1.987 7.804-.506 1.128-1.242 1.675-2.465 1.503-1.232-.173-1.863-1.254-2.412-2.37-.822-1.668-1.661-4.957-1.881-6.765" fill="#EBA76C"/><path d="M371.851 244.208c-.32-.553-.48-1.178-.634-1.798-1.497-6.037-2.654-12.23-2.285-18.521.04-.679.102-1.375.409-2.008.308-.634.912-1.201 1.643-1.315.728-.115 1.435.241 1.88.75.445.507.676 1.15.889 1.782 1.826 5.422 2.945 11.103 3.008 16.879.015 1.354-.056 2.798-.875 3.972-.457.656-1.328 1.397-2.198 1.473-.828.072-1.482-.6-1.837-1.214" fill="#EEA05D"/><path d="M370.651 243.377c-.386-.703-.62-1.476-.851-2.244l-.548-1.82c-.165-.549-.331-1.1-.448-1.661-.115-.553-.183-1.115-.251-1.676l-.347-2.879a15.961 15.961 0 0110.281-.324 32.2 32.2 0 01-.036 4.586c-.119 1.492-.348 3-.973 4.36-.613 1.335-1.804 2.67-3.101 3.398-1.43.803-3.068-.541-3.726-1.74" fill="#9EBEE6"/><g transform="matrix(-1 0 0 1 501 133)"><mask id="c" fill="#fff"><use xlink:href="#b"/></mask><path d="M67.454 33.694c-46.846 0-78.838-29.707-123.97-33.135-45.132-3.428-114.259 49.132-175.958 57.13-61.699 7.998-148.536-52.631-208.522-52.631" stroke="#371D6E" stroke-width="13.677" mask="url(#c)"/></g><path d="M339.649 168.48l-3.223-59.486h27.208c16.281 0 23.637 29.564 39.847 38.205 13.484 7.186 25.28 7.339 32.135 7.339 6.856 0 7.356 12.584 7.356 12.584s-.5 12.585-7.356 12.585c-6.855 0-18.651.153-32.135 7.339-16.21 8.641-23.566 38.205-39.847 38.205h-27.208l3.456-56.774-.233.003" fill="#CD2379"/><path d="M304.719 167.122c0-20.367 2.891-38.694 7.498-51.46v-18.38h15.64c12.778 0 23.137 31.269 23.137 69.84 0 38.573-10.359 69.841-23.137 69.841h-15.64v-18.38c-4.607-12.766-7.498-31.093-7.498-51.461" fill="#371D6E"/><path d="M290.152 167.122c0 38.573 10.358 69.841 23.137 69.841 12.778 0 23.137-31.268 23.137-69.841 0-38.571-10.359-69.84-23.137-69.84-12.779 0-23.137 31.269-23.137 69.84" fill="#371D6E"/><path d="M290.152 167.122c0 38.573 10.358 69.841 23.137 69.841 12.778 0 23.137-31.268 23.137-69.841 0-38.571-10.359-69.84-23.137-69.84-12.779 0-23.137 31.269-23.137 69.84" fill="#D7C5FD" opacity=".202"/><path d="M310.289 141.2c0 5 1.343 9.054 3 9.054 1.656 0 2.999-4.054 2.999-9.054s-1.343-9.053-2.999-9.053c-1.657 0-3 4.053-3 9.053" fill="#D7C5FD"/><path fill="#D7C5FD" d="M313.289 150.254H263.8v-18.107h49.489z"/><path d="M253.247 141.2a9.054 9.054 0 1018.109-.001 9.054 9.054 0 00-18.109.001M310.289 193.045c0 5 1.343 9.053 3 9.053 1.656 0 2.999-4.053 2.999-9.053 0-5-1.343-9.054-2.999-9.054-1.657 0-3 4.054-3 9.054" fill="#D7C5FD"/><path fill="#D7C5FD" d="M313.289 202.098H263.8v-18.107h49.489z"/><path d="M253.247 193.045a9.054 9.054 0 1018.107-.001 9.054 9.054 0 00-18.107.001" fill="#D7C5FD"/><g transform="matrix(-1 0 0 1 116 138)"><mask id="e" fill="#fff"><use xlink:href="#d"/></mask><path d="M44.728 28.694c46.846 0 91.781 29.779 136.913 26.351 45.131-3.428 125.112-43.775 186.812-35.777C430.152 27.266 484.14 53.415 553.179.058" stroke="#371D6E" stroke-width="13.677" mask="url(#e)"/></g><path d="M69.2 154.538c6.856 0 18.653-.153 32.136-7.339 16.21-8.641 23.566-38.205 39.848-38.205h27.207l-3.656 56.626.424-.006 3.232 59.637h-27.207c-16.282 0-23.638-29.564-39.848-38.205-13.483-7.186-25.28-7.339-32.136-7.339-6.855 0-7.355-12.585-7.355-12.585s.5-12.584 7.355-12.584" fill="#CD2379"/><path d="M200.098 167.122c0-20.367-2.891-38.694-7.498-51.46v-18.38h-15.64c-12.778 0-23.137 31.269-23.137 69.84 0 38.573 10.359 69.841 23.137 69.841h15.64v-18.38c4.607-12.766 7.498-31.093 7.498-51.461" fill="#371D6E"/><path d="M214.666 167.122c0 38.573-10.359 69.841-23.138 69.841-12.778 0-23.137-31.268-23.137-69.841 0-38.571 10.359-69.84 23.137-69.84 12.779 0 23.138 31.269 23.138 69.84" fill="#371D6E"/><path d="M214.666 167.122c0 38.573-10.359 69.841-23.138 69.841-12.778 0-23.137-31.268-23.137-69.841 0-38.571 10.359-69.84 23.137-69.84 12.779 0 23.138 31.269 23.138 69.84" fill="#D7C5FD" opacity=".202"/><path d="M194.527 141.2c0 5-1.342 9.054-2.999 9.054-1.656 0-2.999-4.054-2.999-9.054s1.343-9.053 2.999-9.053c1.657 0 2.999 4.053 2.999 9.053M194.527 193.045c0 5-1.342 9.053-2.999 9.053-1.656 0-2.999-4.053-2.999-9.053 0-5 1.343-9.054 2.999-9.054 1.657 0 2.999 4.054 2.999 9.054" fill="#D7C5FD" opacity=".5"/><path d="M337.256 221.379a13.932 13.932 0 01-.539-.484c-1.424-1.343-2.93-2.613-4.052-4.235-.504-.727-.924-1.512-1.485-2.196-.561-.684-1.298-1.274-2.168-1.431.32.905.875 1.724 1.597 2.357a45.083 45.083 0 01-4.96-3.775c-.172.072-.227.286-.252.471a7.367 7.367 0 00.147 2.755c.107.433.256.862.521 1.221.283.385.684.668 1.095.913 1.147.682 2.735 1.043 3.538 2.109.383.509.702.685 1.253 1.681.827 1.497 1.665 2.988 2.502 4.48.94 1.678 3.178 5.622 5.371 5.999 1.219.209 2.082-.097 2.622-1.209.543-1.119-.003-2.245-.623-3.323-.926-1.612-3.19-4.142-4.567-5.333" fill="#EEA05D"/><path d="M338.828 230.532c.032.091.07.181.113.267.302.603.811 1.059 1.315 1.494 2.98 2.568 6.198 4.874 9.649 6.791a49.596 49.596 0 004.851 2.361c1.249.523 2.612 1.003 4.008.687.78-.175 1.795-.702 2.194-1.48.379-.739.003-1.598-.432-2.16-.392-.504-.911-.888-1.426-1.263-5.028-3.664-10.327-7.073-16.293-9.103-.644-.22-1.311-.423-2.013-.377-.703.045-1.457.39-1.838 1.025-.326.542-.326 1.2-.128 1.758M360.194 230.676c.312.703.789 1.443 1.545 1.596.244.049.897 0 1.591-.1.166-.022.337-.049.502-.077.698-.12 1.343-.277 1.549-.422.459-.322 1.275-1.669 1.349-1.855.02-.049.046-.105.076-.164.057-.119.135-.255.216-.4.251-.443.551-.967.551-1.292 0-2.362-.998-2.982-1.876-4.137-.878-1.151-2.151-1.962-3.518-2.444-.739-.26-1.636-.464-2.41-.237-.692.2-.603.703-.638 1.324-.161 2.816-.095 5.595 1.063 8.208" fill="#EEA05D"/><path d="M362.289 236.016c1.712 1.846 4.446 2.676 6.895 2.091.698-.167 1.38-.441 2.099-.473-.994-.641-1.5-1.827-1.726-2.987a8.65 8.65 0 01.127-3.929c.069-.255.651-1.351.383-1.552-.228-.169-1.508.387-1.876.378-.408-.009-.791-.132-1.169-.29a15.265 15.265 0 01-.187-.083l-.002-.002c-.422-.19-.835-.409-1.27-.55-.091-.03-.189-.055-.282-.03a.549.549 0 00-.202.132c-.564.51-1.129 1.017-1.694 1.524.187.557.33 1.131.425 1.711.009.046.015.091.022.139.083.55.123 1.106.121 1.663 0 .158-.005.318-.021.478a2.333 2.333 0 01-.129.596 1.868 1.868 0 01-1.514 1.184" fill="#EEA05D"/><path d="M363.832 232.095c.083.55.123 1.106.121 1.663 0 .158-.005.318-.021.478.163-.092.308-.276.426-.38.255-.227.486-.454.717-.703.703-.768 1.115-1.735 1.476-2.692.095-.251.201-.527.255-.807.032-.163.045-.325.029-.483v-.003l-.002.001c-.626.662-1.117 1.403-1.817 1.997a6.477 6.477 0 01-1.206.79c-.042.024-.084.044-.126.066-.115.057-.237.101-.354.15.166-.022.337-.049.502-.077" fill="#E17D27"/><path d="M365.673 231.405c-.456-.38-.899-.783-1.251-1.262-.846-1.153-1.085-2.644-1.794-3.886a5.784 5.784 0 00-1.882-1.987c-.644-.416-1.374-.705-1.947-1.213-.874-.775-1.276-1.983-1.272-3.15.004-1.167.374-2.303.838-3.375.442.494 1.138.661 1.795.749 1.812.244 3.657.082 5.477.251 1.821.171 3.717.745 4.905 2.135 1.258 1.474 1.476 3.553 1.512 5.49.018.979.004 1.964-.19 2.922a7.939 7.939 0 01-1.615 3.418c-1.337 1.642-3.123 1.119-4.576-.092" fill="#1E3358"/><path d="M362.193 225.833c.147-.235.334-.459.586-.576.253-.116.581-.102.778.093.154.151.205.384.184.598-.022.214-.105.417-.188.617-.289.694-.585 1.401-1.066 1.98-.084.101-.204.206-.329.168-.074-.022-.124-.09-.165-.156 0-.172-.242-.488-.291-.677a2.53 2.53 0 01-.073-.799c.018.005-.025.051.03.046.267-.306.297-.915.534-1.294" fill="#EBA76C"/><path d="M372.778 319.491c.069.517.137 1.053-.023 1.548-.321.995-1.493 1.508-2.535 1.416-1.041-.09-1.979-.639-2.872-1.182-1.462-.888-2.921-1.803-4.174-2.967-.472-.439-.921-.923-1.181-1.512-.259-.59-.306-1.304.014-1.862.497-.869 1.694-1.085 2.663-.836.968.248 1.806.844 2.713 1.265 1.235.574 1.961 1.007 3.227 1.496 1.511.584 1.964 1.112 2.168 2.634" fill="#371D6E"/><path d="M374.447 271.238c.264 3.232-.312 6.465-.783 9.673-.495 3.372-.877 6.76-1.145 10.158-.083 1.045-.155 2.099-.046 3.143.175 1.688.814 3.29 1.156 4.952.581 2.822.297 5.74.011 8.606l-.569 5.693c-.179 1.799-.362 3.613-.909 5.337-1.608.587-2.508-.064-3.074-.613a73.674 73.674 0 00-2.397-14.753c-.407-1.51-.862-3.01-1.124-4.551-.296-1.741-.343-3.513-.46-5.273-.45-6.727-1.943-13.432-1.341-20.146.233-2.597.777-5.153 1.32-7.703.049-.231.106-.476.272-.644.186-.188.467-.237.729-.277l4.139-.629c.836-.128 1.939-.531 2.605.176.654.694.784 2.251.996 3.143.29 1.22.52 2.457.62 3.708M359.062 322.232c.091.543.182 1.105.035 1.635-.3 1.087-1.538 1.693-2.664 1.647-1.127-.045-2.166-.586-3.161-1.114-1.555-.825-3.112-1.651-4.591-2.605-.862-.557-1.731-1.197-2.164-2.127-.433-.929-.261-2.216.627-2.728.963-.556 2.149.011 3.188.409 1.118.428 2.302.651 3.479.873 1.192.225 3.237.206 4.277.808.904.524.806 2.205.974 3.202" fill="#371D6E"/><path d="M366.408 277.227c-.68 1.017-1.499 1.94-2.142 2.983-.877 1.424-1.401 3.032-1.917 4.623-1.413 4.356-2.841 8.791-2.914 13.37-.052 3.206.564 6.388.646 9.594.054 2.132-.127 4.263-.309 6.389l-.559 6.542a8.98 8.98 0 01-5.157-1.075c.3-5.395-.275-10.807-1.203-16.13-.449-2.572-.98-5.133-1.212-7.733-.426-4.77.165-9.565.755-14.318.732-5.898 1.478-11.856 3.537-17.43-.139.378 9.901 1.348 10.765 1.434 3.203.32 2.329 4.182 1.85 6.502-.384 1.862-1.083 3.664-2.14 5.249" fill="#371D6E"/><path d="M368.703 290.844c-.319 1.08-.685 2.154-.839 3.27-.176 1.287-.064 2.594.048 3.888l.382 4.407c.329 3.8.611 7.611 1.227 11.374.247 1.51-.269 2.728-.43 4.423-1.478-4.791-2.152-9.29-3.067-14.219-1.03-5.553-1.33-11.212-1.629-16.852l-.259-4.885c-.043-.826-.075-1.703.333-2.422.407-.716 1.171-1.137 1.87-1.575 1.805-1.13 2.965-2.757 4.544-4.069.563.751.044 2.708-.029 3.61-.12 1.47-.259 2.94-.439 4.403-.358 2.918-.877 5.824-1.712 8.647" fill="#010004"/><path d="M355.37 254.152c-.108-1.003-.263-2.005-.257-3.015.01-1.823.543-3.599 1.071-5.344l2.13-7.041c.26-.859.523-1.725.958-2.511a7.562 7.562 0 003.441-.22l-.164.113a8.12 8.12 0 005.576 1.875l-.003-.011c.219-.106.59-.073.864-.194.239-.107.5-.251.722-.392.345-.216.749-.697.568-1.13.643.469 1.103.625 1.894.663.559.025 1.244.073 1.689.455.761.654 1.178 1.655 1.347 2.647.016.046.032.092.046.139.247.853.175 1.764.09 2.649-.176 1.854-.396 3.709-.848 5.516-.284 1.131-.658 2.242-.867 3.389-.843 4.624 1.053 9.429.166 14.045-.562-.042-1.027.396-1.469.746-1.5 1.187-3.479 1.603-5.39 1.649-1.912.047-3.817-.239-5.729-.286-2.177-.055-4.61.118-6.251-1.314.51-4.123.861-8.298.416-12.428" fill="#9EBEE6"/><path d="M359.551 237.839c.6-.354 1.419-.013 1.809.564.389.577.453 1.308.467 2.004.088 4.18-1.153 8.271-1.496 12.437-.073.882-.104 1.78.116 2.637.214.828.654 1.58.927 2.39.537 1.592.409 3.331.111 4.985-.3 1.653-.764 3.283-.885 4.959a20.827 20.827 0 01-6.058-1.251c-.122-.045-.252-.099-.315-.212-.065-.115-.04-.258-.013-.388.793-3.928.746-7.976.481-11.974-.067-1.014-.147-2.033-.07-3.047.071-.934.276-1.851.482-2.765.498-2.209 1.054-4.514 2.547-6.216.547-.623 1.209-1.15 1.673-1.838.464-.687.698-1.621.291-2.344l-.563.851" fill="#5885C7"/><path d="M362.072 238.258c-.461-.655-1.053-1.206-1.64-1.751l-1.393-1.293a19.894 19.894 0 00-1.295-1.134c-.446-.347-.92-.655-1.394-.963l-2.432-1.579a15.955 15.955 0 00-4.816 9.089 32.219 32.219 0 004.133 1.986c1.392.55 2.847 1.008 4.343 1.046 1.469.038 3.192-.444 4.417-1.289 1.35-.93.864-2.993.077-4.112" fill="#9EBEE6"/><path d="M363.714 234.287c-.098.102-.041.065.027.002-.008 0-.019 0-.027-.002" fill="#5885C7"/><path d="M156.027 247.616c-.413.192-.91.192-1.357.19-.906-.005-1.805-.062-2.687-.287-1.469-.374-2.636-1.251-3.923-2.003-.388-.226-.751-.5-1.139-.721-.206-.117-.475-.169-.638-.341.327-.159.741-.046 1.095-.21.995-.46 1.632-1.543 1.941-2.542.123-.396.246-.806.351-1.218.072-.282.134-.563.182-.84.024-.137.044-.294.056-.462.038-.489.021-1.069-.12-1.489-.046-.064-.093-.128-.137-.192.193.003.383-.234.572-.239.269-.009.591.36.786.525.523.445 1.036.918 1.722 1.086.902.223 1.941.54 2.859.36-.326.464-.484 1.137-.591 1.714a8.1 8.1 0 00-.035.195c-.103.583-.24 1.133-.218 1.729a8.503 8.503 0 00.271 1.806c.273 1.016.517 2.016 1.01 2.939" fill="#D29026"/><path d="M157.839 232.044c.113.689.49 1.258.532 1.97.061 1.016.044 2.099-.252 3.077-.585 1.936-1.957 3.957-3.476 5.286-2.314 2.023-4.516-1.83-5.084-3.756-.484-1.637-.89-3.897.037-5.445.742-1.24 1.84-2.539 3.291-2.889 1.038-.25 2.383-.14 3.323.407.602.349 1.127 1.412 1.629 1.35" fill="#EEA05D"/><path d="M150.384 234.814c1.491-1.971 3.725-1.26 4.606-1.383 1.686-.235 2.794-1.605 2.954-3.21.084-.85.208-1.956-.058-2.75-.713.178-1.229.552-2.044.394-.853-.166-1.526-.526-2.422-.559-1.652-.063-3.566.311-4.686 1.608-1.493 1.729-2.188 4.012-2.13 6.282.016.678 1.827 6.356 3.036 5.532.439-.3.214-2.727.266-3.29.065-.701.24-2.31.478-2.624" fill="#1E3358"/><path d="M156.986 229.968c1.491-.109 2.426 1.912 2.559 3.29.126 1.309-.358 2.699-.814 3.898-.245.642-.523 1.288-.879 1.864-.119.193-.737 1.312-1.024 1.282-.534-.058.262-1.568.357-1.814.328-.849.576-1.674.666-2.57.131-1.307.161-2.607-.441-3.814-.43-.862-.733-1.24-.424-2.136" fill="#1E3358"/><path d="M150.358 235.745c-.172-.466-.173-.854-.546-1.184-.264-.235-.604-.346-.876-.028-.558.653.184 1.559.49 2.128.164.307.429.599.578.897.104-.359.097-.747.169-1.105.036-.178.083-.733.185-.708" fill="#EBA76C"/><path d="M142.15 319.823c-.386.756.056 2.132-.081 3.036-.132.877-.75 1.552-1.278 2.276-.766 1.052-2.965 3.035-2.308 4.473.842 1.847 3.119 1.073 4.303.179 1.226-.925 1.6-2.502 2.556-3.654.778-.938.817-1.717.579-2.876-.229-1.115-.209-2.241-.269-3.424-.746-.094-1.554.116-2.304.15-.345.015-1.355.074-1.198-.16M152.381 319.663c-.095 1.07.24 2.208.04 3.275-.171.907-1.011 1.95-.759 2.955.25.996 1.536 1.034 2.378 1.296.875.271 1.466.847 2.034 1.578 1.147 1.472 3.887 1.888 5.334.403.654-.671.794-1.904.096-2.498-.74-.629-1.829-.59-2.651-1.06-2.21-1.266-3.336-3.271-3.181-5.942-1.098.089-2.082.283-3.149.129-.05.121-.018.235-.142-.136" fill="#371D6E"/><path d="M144.213 268.802c-.936.412-1.437 2.81-1.817 3.754-.592 1.469-.992 3.065-1.211 4.633-.616 4.388.007 8.749.469 13.102.184 1.727.515 3.45.646 5.188.137 1.808-.357 4.091-1.022 5.734-.733 1.817-1.145 5.065-.874 7.028.278 2.002.087 2.188.292 4.192.191 1.86.391 3.737.482 5.588.034.704.114 1.384.081 2.097-.037.762.169 1.462.172 2.187 0 .132.108.235.24.232 1.569-.043 3.556.028 4.99-.435a.157.157 0 00.106-.13c.383-3.29 1.012-6.57 1.677-9.823 1.028-5.039 1.956-10.097 2.943-15.144.922-4.712 1.851-9.525 2.459-14.302a54.17 54.17 0 00.432-6.807c.001-1.102-.007-2.199-.071-3.299-.027-.47.109-1.439-.289-1.722-.458-.326-2.263-.137-2.88-.19-1.112-.098-2.132-.186-3.22-.482a70.297 70.297 0 01-3.982-1.199c.346.021.684.086.377-.202" fill="#371D6E"/><path d="M150.59 270.876c-.05 0-.099 0-.146.002.053-.09.103-.075.146-.002" fill="#4F4E4E"/><path d="M161.944 285.173c0 4.925-.959 9.774-1.992 14.568a208.045 208.045 0 00-2.618 14.729c-.265 1.877-.377 3.823-.749 5.653-.07.346-.129 1.12-.311 1.393-.342.516-1.067.32-1.759.32-.589 0-1.335.134-1.897.062-.793-.101-.867-.496-.983-1.303-.444-3.063-.487-5.425-.633-7.837-.116-1.936-.34-3.676-.174-5.583.01-.125.023-.25.036-.376.352-3.124.814-6.221 1.231-9.327.171-1.274.155-2.542.063-3.81-.106-1.554-.325-3.107-.44-4.663-.432-5.822.203-11.663-.938-17.405-.044-.223-.107-.577-.19-.718 3.088-.005 7.603 1.885 10.321-.291-.062 2.485.672 4.807.794 7.241.121 2.427.239 4.864.239 7.347" fill="#371D6E"/><path d="M161.462 270.793c-.086-2.484-.319-4.95-.322-7.44-.002-2.385-.039-4.753-.171-7.135-.058-1.038-.189-2.101-.043-3.139.149-1.065.268-2.097.268-3.18 0-.997.075-3.056-.958-3.534-.787-.362-1.626-.688-2.41-1.068-.869-.422-1.998-1.221-2.962-1.323.01.16-.01.402-.043.503a.678.678 0 01.033.042c-.082 1.153-1.174 1.605-2.181 1.754-1.359.203-2.576-.136-3.594-1.129-.42-.409-.824-.989-.928-1.539-.561.301-1.193.368-1.838.404a4.694 4.694 0 01-1.04.355c-.611.228-1.239.409-1.859.624-.512.409-1.076.712-1.753.78a16.15 16.15 0 00-1.212.745 5.08 5.08 0 00-.188.739c-.306 1.593-.509 3.08.399 4.454.398.601 2.464 3.949 2.539 4.235.144.552-.004 1.349-.004 1.929v.264c.002.779.007 1.561 0 2.34-.022 2.814-.517 5.578-.958 8.354a56.068 56.068 0 01-.554 3.038c-.038.175-.078.347-.118.52-.151.639-.448 1.541-.331 2.196.31-.023.748.139 1.056.208 1.36.307 2.652.941 4.049 1.133 2.259.308 4.593.413 6.881.423 2.517.011 5.588.655 7.8-.919.492-.35.334-.873.334-1.491-.003-1.05.143-2.09.108-3.143" fill="#C4DFF8"/><path d="M145.296 250.241c-.808.717-2.487.109-3.307-.301-1.021-.511-1.796-1.496-2.461-2.374-2.117-2.794-4.237-5.559-6.07-8.589-.91-1.503-2.177-2.862-2.802-4.48-.137-.358.198-1.494.284-1.866.136-.594.792-.346 1.269-.179 2.676.94 4.694 3.218 6.561 5.305.715.799 1.273 1.708 1.988 2.519 1.09 1.238 2.194 2.494 3.1 3.872a13.493 13.493 0 011.638 3.645c.168.612.406 1.462.138 2.084-.171.4-.483.576-.338.364" fill="#EEA05D"/><path d="M131.314 235.098c-.657-.469-.805-1.325-.988-2.051-.603-2.401-.79-4.914-1.071-7.393-.229-2.031.009-4.121-.412-6.168-.393-1.914-1.324-3.756-1.541-5.721-.119-1.08-.151-2.796.415-3.958a.747.747 0 011.212-.186c.175.185.331.379.428.554.241.437.256 1.197.419 1.707.311.982.798 1.998 1.016 2.984.154-.434.082-1.247.032-1.954-.015-.216.29-.28.362-.074.324.94.614 2.102.721 2.854.138.97-.367 2.26-.258 3.243.191 1.734.918 2.987 1.384 4.674.769 2.781 2.128 5.76 1.877 8.712-.063.739.145 1.985-.474 2.545-.437.396-2.455.708-3.122.232" fill="#EEA05D"/><path d="M162.226 257.579c.024-.027.051-.054.078-.08.02.073-.003.103-.078.08" fill="#4F4E4E"/><path d="M155.07 285.979c-.234 2.525-.579 5.061-1.438 7.465-.65 1.812-.978 3.839-1.067 5.752-.04.843.105 1.653.108 2.495.005.977-.146 1.939-.313 2.902-.157.896-.452 1.738-.776 2.583-.218.569-.381 1.192-.724 1.701a29.45 29.45 0 00-.032-1.702c.01-.125.023-.25.036-.376.352-3.124.814-6.221 1.231-9.327.171-1.274.155-2.542.063-3.81.241-1.043.409-2.147.515-3.201.108-1.077.334-2.15.376-3.238.041-1.027.009-2.555.412-3.487.332-.767 1.305-1.114 1.92-1.591.065 1.255-.192 2.57-.311 3.834" fill="#010004"/><path d="M135.431 241.822c.334-.425.774-.838 1.174-1.21.445-.415.887-.833 1.331-1.251.257-.243.515-.433.82-.604.334-.188.916-.301 1.121-.598.23.161.778.753 1.18 1.083.619.51 1.238.938 1.796 1.525.639.674 1.377 1.268 2.11 1.824.913.692 1.957 1.324 3.077 1.5.168.347.326.699.509 1.044.182.346.401.645.652.914l.001.08c.014.553.058 1.09.152 1.637.098.577.315 1.096.098 1.661-.478 1.251-1.415 2.151-2.346 3.074-1.08 1.071-1.913 2.29-2.775 3.538-.122.176-.232.376-.345.572a4.805 4.805 0 00-.373-1.378c-.558-1.231-1.595-2.507-2.638-3.36-.101-.083-.208-.121-.315-.167-.401-.636-.809-1.267-1.218-1.91-.708-1.115-1.116-2.294-1.708-3.44-.383-.742-.904-1.357-1.32-2.082-.299-.521-.553-1.103-.901-1.573-.297-.4-.426-.439-.082-.879" fill="#C4DFF8"/><g opacity=".5"><path fill="#BFA1FF" opacity=".3" d="M415.479 101.203h8.479v8.479h7.419v-8.479h8.479v-7.419h-8.479v-8.479h-7.419v8.479h-8.479v7.419"/><path fill="#371D6E" fill-rule="nonzero" opacity=".095" d="M232 101.087h5.913V107h5.174v-5.913H249v-5.174h-5.913V90h-5.174v5.913H232v5.174M418 227.826h4.174V232h3.652v-4.174H430v-3.653h-4.174V220h-3.652v4.173H418v3.653"/><path d="M337.83 72.416c0-2.756 2.279-5.034 5.035-5.034 2.756 0 5.034 2.278 5.034 5.034s-2.278 5.034-5.034 5.034-5.035-2.278-5.035-5.034zm9.274-22.205c0-1.854-1.218-3.073-3.921-3.073-2.915 0-4.664 1.96-5.724 4.451l-7.313-4.186c2.332-5.459 7.472-8.532 13.355-8.532 6.041 0 12.082 3.709 12.082 10.598 0 7.896-8.479 10.334-8.479 13.991h-8.479c0-6.201 8.479-8.585 8.479-13.249zM198.684 33.545c0-2.756 2.279-5.034 5.035-5.034 2.755 0 5.034 2.278 5.034 5.034s-2.279 5.034-5.034 5.034c-2.756 0-5.035-2.278-5.035-5.034zm9.274-22.205c0-1.854-1.219-3.073-3.921-3.073-2.915 0-4.664 1.96-5.724 4.451L191 8.532C193.332 3.073 198.472 0 204.354 0c6.041 0 12.082 3.709 12.082 10.598 0 7.896-8.478 10.334-8.478 13.991h-8.479c0-6.201 8.479-8.585 8.479-13.249z" fill="#CD2379" fill-rule="nonzero" opacity=".1"/><path d="M453.499 286.04h4.876l.741 4.24h-4.875l-.742-4.24zm-6.041 0l.742 4.24h-5.617l.9 5.83h5.671l1.324 7.948h6.042l-1.325-7.948h4.875l1.325 7.948h6.041l-1.325-7.948h5.618l-.954-5.83h-5.617l-.742-4.24h5.67l-.954-5.829h-5.67l-1.325-7.949h-6.041l1.325 7.949h-4.875l-1.326-7.949h-6.041l1.325 7.949h-5.565l.954 5.829h5.565z" fill="#BFA1FF" fill-rule="nonzero" opacity=".3"/><path d="M38.974 276.533h3.484l.53 2.934h-3.484l-.53-2.934zm-4.317 0l.53 2.934h-4.013l.644 4.034h4.051l.947 5.499h4.317l-.948-5.5h3.484l.947 5.5h4.317l-.947-5.5H52l-.682-4.033h-4.014l-.53-2.934h4.052l-.682-4.033h-4.052l-.946-5.5H40.83l.946 5.5h-3.483l-.947-5.5H33.03l.946 5.5H30l.682 4.033h3.975z" fill="#371D6E" fill-rule="nonzero" opacity=".095"/></g><path d="M502 138v79h-25v-79h25z" fill="url(#f)" transform="matrix(-1 0 0 1 502 0)"/><path d="M25 108v79H0v-79h25z" fill="url(#f)" transform="translate(477)"/></g></svg>