<?xml version="1.0" encoding="UTF-8" standalone="yes"?>
<svg width="125" height="125" viewBox="0 0 125 125" version="1.2" baseProfile="tiny-ps" xmlns="http://www.w3.org/2000/svg">
  <title>bimi-svg-tiny-12-ps</title>
  <defs/>
  <g id="Quadra-logo-Q">
    <g id="Group_11" transform="translate(255 -3019)">
      <rect id="Rectangle_4" width="125" height="125" transform="translate(-255 3019)" fill="none"/>
      <g id="Logo_Quadra_Q_only_" transform="translate(-250.063 3024.8)">
        <g id="Group_7">
          <path id="Path_6" d="M53.9,49.563V2.2l2.429.067,2.4.179,2.371.3,2.325.417,2.287.529,2.246.642,2.2.746,2.154.85,2.1.954,2.042,1.046,1.979,1.142,1.929,1.238,1.854,1.321L84,13.042l1.721,1.488L87.367,16.1l1.567,1.646,1.5,1.721,1.408,1.788,1.321,1.858,1.233,1.921,1.142,1.983,1.046,2.038.954,2.1.846,2.146.75,2.2.638,2.246.533,2.283.421,2.333.3,2.363.188,2.4.063,2.425Z" fill="#bbbdc0" fill-rule="evenodd"/>
        </g>
        <g id="Group_8">
          <path id="Path_7" d="M47.425,49.563V2.2l-2.433.067-2.4.179-2.371.3L37.9,3.167,35.613,3.7l-2.246.642-2.2.746-2.154.85-2.092.954L24.879,7.933,22.9,9.075l-1.921,1.238-1.863,1.321-1.792,1.408L15.6,14.529,13.958,16.1,12.392,17.75l-1.5,1.721L9.488,21.258,8.167,23.117,6.933,25.038,5.788,27.021,4.742,29.058l-.946,2.1-.85,2.146-.75,2.2-.638,2.246-.529,2.283L.613,42.371l-.3,2.363-.188,2.4L.063,49.563Z" fill="#bbbdc0" fill-rule="evenodd"/>
        </g>
        <g id="Group_9">
          <path id="Path_8" d="M47.425,55.9v47.367l-2.433-.058-2.4-.183-2.371-.3L37.9,102.3l-2.288-.525-2.246-.646-2.2-.742-2.154-.854-2.092-.95-2.046-1.05L22.9,96.392l-1.921-1.233-1.863-1.321-1.792-1.408L15.6,90.942l-1.646-1.575-1.567-1.646L10.9,86,9.488,84.208,8.167,82.354,6.933,80.433,5.788,78.446,4.742,76.4,3.8,74.308l-.85-2.154-.75-2.2-.638-2.246-.529-2.287L.613,63.1l-.3-2.367-.188-2.4L.063,55.9Z" fill="#231f20" fill-rule="evenodd"/>
        </g>
        <g id="Group_10">
          <path id="Path_9" d="M53.617,55.9v54.413h62L87.208,89.238,88,88.421l.771-.833.746-.846.725-.871.713-.879.683-.9.671-.917.646-.933.621-.954.6-.958.575-.983.558-1,.533-1.013.5-1.025.488-1.033.454-1.054.433-1.062.408-1.075.383-1.092.354-1.1.333-1.1.3-1.129.275-1.133.25-1.142.217-1.154.2-1.162.167-1.179.137-1.175.1-1.192.079-1.2.046-1.2.013-1.217Z" fill="#231f20" fill-rule="evenodd"/>
        </g>
      </g>
    </g>
  </g>
</svg>